<?xml version="1.0" standalone="no"?>
<!DOCTYPE svg PUBLIC "-//W3C//DTD SVG 20010904//EN"
 "http://www.w3.org/TR/2001/REC-SVG-20010904/DTD/svg10.dtd">
<svg version="1.0" xmlns="http://www.w3.org/2000/svg"
 width="700.000000pt" height="700.000000pt" viewBox="0 0 700.000000 700.000000"
 preserveAspectRatio="xMidYMid meet">
<metadata>
Created by potrace 1.14, written by Peter Selinger 2001-2017
</metadata>
<g transform="translate(0.000000,700.000000) scale(0.100000,-0.100000)"
fill="#000000" stroke="none">
<path d="M640 6761 c-106 -38 -179 -101 -223 -192 -27 -54 -47 -141 -43 -188
2 -17 -8 -34 -30 -53 -43 -38 -91 -114 -108 -173 -21 -69 -15 -197 13 -260 61
-136 181 -219 337 -232 69 -5 76 -8 116 -47 97 -92 230 -126 362 -91 166 44
289 207 282 373 -2 36 3 46 36 77 47 46 98 148 107 217 20 158 -62 318 -201
389 -53 27 -129 46 -183 45 -34 -1 -44 5 -79 42 -22 24 -68 56 -105 74 -57 28
-78 33 -151 34 -58 1 -99 -3 -130 -15z m208 -228 c15 -11 37 -35 49 -54 50
-78 58 -84 109 -83 27 0 65 3 86 7 39 9 96 -9 131 -41 71 -64 64 -185 -13
-244 -91 -69 -95 -73 -93 -119 1 -24 3 -69 4 -100 3 -62 -17 -108 -62 -142
-34 -24 -106 -33 -153 -17 -35 11 -96 73 -96 96 0 7 -14 24 -32 39 -29 25 -37
26 -83 20 -113 -16 -149 -12 -189 19 -98 74 -82 228 28 280 70 33 89 84 64
167 -21 73 21 157 95 188 49 21 115 14 155 -16z"/>
<path d="M4958 6565 c-2 -1 -25 -5 -52 -8 -60 -8 -161 -54 -202 -94 -28 -28
-36 -30 -85 -27 -104 7 -224 -39 -296 -113 -142 -147 -145 -379 -8 -529 32
-35 35 -42 31 -88 -15 -200 150 -387 355 -401 100 -7 208 30 284 96 31 28 42
31 96 31 153 0 285 84 349 221 66 141 41 307 -63 419 -22 24 -26 36 -25 95 1
150 -68 274 -193 345 -41 24 -180 63 -191 53z m99 -252 c55 -36 80 -121 57
-189 -24 -69 -19 -102 24 -141 20 -19 52 -48 69 -65 19 -18 35 -45 39 -65 26
-137 -91 -236 -226 -190 -56 19 -97 8 -130 -35 -54 -70 -89 -97 -135 -104
-128 -19 -222 97 -179 220 29 81 12 127 -61 170 -114 67 -108 229 11 286 47
23 73 23 154 0 58 -17 91 -3 135 56 65 89 160 111 242 57z"/>
<path d="M3495 6189 c-59 -14 -122 -48 -178 -98 -46 -42 -54 -45 -111 -47
-327 -12 -481 -418 -247 -651 40 -41 47 -53 46 -83 -3 -48 21 -144 46 -188
l21 -37 -59 -60 c-38 -39 -67 -80 -83 -117 -17 -43 -29 -58 -48 -63 -33 -8
-104 -50 -126 -74 -17 -19 -19 -18 -66 17 -26 19 -67 43 -90 52 -34 13 -45 24
-56 55 -7 21 -22 50 -32 65 -20 26 -20 26 5 86 16 36 28 86 31 129 4 65 7 73
44 110 69 71 111 189 103 290 -17 197 -172 344 -373 354 -47 2 -58 7 -92 41
-166 166 -437 146 -577 -43 -48 -66 -74 -141 -75 -216 0 -45 -4 -54 -44 -95
-77 -81 -113 -176 -108 -287 9 -204 163 -355 369 -362 36 -1 65 -3 65 -3 0 -1
-11 -26 -24 -57 -20 -45 -31 -57 -59 -66 -19 -7 -56 -27 -83 -46 -27 -19 -52
-35 -55 -35 -3 0 -19 11 -35 25 -16 14 -53 35 -83 47 -48 20 -56 28 -77 75
-46 106 -123 176 -229 211 -160 52 -331 -2 -430 -136 -19 -26 -40 -64 -46 -84
-10 -32 -21 -42 -75 -67 -34 -16 -82 -48 -107 -70 -87 -81 -135 -224 -112
-340 l10 -54 -59 -31 c-235 -122 -231 -461 7 -582 34 -18 47 -30 48 -47 0 -12
2 -31 4 -42 3 -11 7 -42 11 -70 3 -27 7 -59 9 -70 1 -11 6 -47 10 -80 3 -33 8
-70 10 -83 2 -13 7 -53 11 -90 3 -37 8 -76 10 -87 2 -11 6 -45 10 -75 3 -30 7
-67 10 -81 4 -26 10 -73 19 -154 3 -22 7 -51 10 -65 2 -14 7 -54 11 -90 3 -36
7 -72 9 -80 2 -8 6 -44 10 -80 4 -36 9 -72 10 -81 2 -9 6 -40 10 -70 10 -86
14 -121 19 -164 3 -22 8 -58 11 -80 2 -22 6 -56 9 -75 2 -19 7 -60 11 -90 3
-30 8 -71 11 -91 9 -73 18 -136 30 -234 3 -27 7 -59 9 -70 1 -11 6 -47 10 -80
3 -33 8 -70 10 -83 2 -13 7 -53 11 -90 3 -37 8 -76 10 -87 2 -11 7 -46 10 -77
3 -32 7 -68 9 -80 3 -12 7 -44 11 -72 3 -28 7 -62 9 -76 2 -14 6 -54 10 -90 4
-36 8 -72 10 -80 3 -8 7 -41 10 -73 4 -32 8 -66 10 -75 1 -9 6 -46 10 -82 4
-36 9 -73 10 -82 2 -9 6 -45 10 -80 7 -72 12 -93 28 -126 27 -55 -88 -52 1951
-52 1339 0 1892 3 1909 11 32 14 57 59 62 111 2 24 7 59 9 78 3 19 8 53 10 75
19 152 37 290 40 292 2 3 23 -202 33 -322 13 -164 31 -217 79 -235 37 -14
1376 -13 1407 1 46 21 58 55 72 214 3 39 8 86 11 105 2 19 6 62 10 95 3 33 7
76 9 95 2 19 6 67 10 105 3 39 8 81 10 95 2 14 7 59 10 100 4 41 8 86 10 100
2 14 7 59 11 100 3 41 8 86 9 100 2 14 6 59 9 100 4 41 9 86 11 100 2 14 7 59
11 100 3 41 8 89 10 105 1 17 6 63 9 104 4 41 8 82 10 92 2 9 6 54 10 99 4 45
8 89 10 98 1 10 6 54 10 100 4 46 8 91 10 100 2 9 4 29 4 43 1 15 7 26 15 26
8 0 28 6 45 13 57 23 61 43 61 308 l0 240 -59 237 c-76 304 -63 289 -244 293
l-133 3 1 432 2 432 161 374 c103 236 162 386 162 407 0 23 -9 44 -29 66 l-29
33 -239 3 c-264 4 -294 1 -323 -30 -11 -12 -97 -175 -191 -364 l-171 -342 0
-506 0 -506 -238 0 -239 0 4 43 c7 64 25 191 28 191 35 11 108 61 141 97 115
128 110 325 -13 448 -68 68 -153 98 -273 96 l-77 -2 6 77 c12 169 -72 312
-226 384 -46 21 -55 30 -86 94 -102 204 -354 273 -547 150 -62 -39 -104 -88
-138 -161 -26 -53 -34 -61 -87 -87 -32 -15 -71 -39 -87 -53 l-29 -25 -21 20
c-29 27 -95 65 -128 73 -16 4 -28 12 -28 17 0 6 -13 37 -30 69 -16 33 -25 59
-20 59 6 0 31 20 57 45 39 38 52 45 82 44 122 -7 266 81 328 198 81 154 59
321 -60 450 -37 41 -41 50 -43 101 -6 155 -111 300 -253 347 -60 20 -162 26
-216 14z m159 -229 c53 -27 96 -90 90 -135 -17 -142 -17 -142 1 -169 10 -15
35 -36 56 -46 105 -54 127 -187 43 -266 -42 -40 -91 -52 -165 -40 -76 13 -98
2 -144 -69 -56 -88 -136 -116 -219 -75 -77 37 -100 104 -81 232 9 60 -7 87
-75 124 -55 30 -85 70 -94 124 -18 114 94 213 204 180 65 -19 96 -13 135 25
19 20 35 41 35 49 0 7 10 22 23 34 58 54 126 66 191 32z m-1614 -115 c31 -16
70 -60 70 -79 0 -7 14 -25 30 -41 32 -31 59 -35 152 -20 155 25 249 -175 129
-276 -20 -16 -51 -42 -70 -58 -32 -26 -35 -32 -32 -77 8 -151 7 -159 -21 -196
-34 -45 -102 -73 -155 -65 -46 8 -100 51 -129 103 -12 22 -36 47 -55 56 -31
16 -40 16 -87 4 -98 -26 -174 2 -212 80 -40 82 -13 161 77 221 70 46 88 84 69
148 -45 149 97 271 234 200z m4350 -823 c0 -7 -52 -132 -95 -227 -8 -16 -33
-75 -56 -130 -23 -55 -52 -122 -64 -150 -52 -118 -50 -92 -50 -565 l0 -445
-106 -3 c-95 -2 -107 -1 -110 15 -2 10 -4 225 -3 479 l0 461 143 287 143 286
99 0 c54 0 99 -4 99 -8z m-5200 -132 c37 -27 69 -90 70 -138 0 -52 50 -97 116
-106 124 -16 185 -121 135 -231 l-18 -40 -394 1 c-217 1 -397 2 -401 3 -14 2
-40 64 -40 97 0 100 74 174 173 174 49 0 88 45 100 118 13 70 43 116 94 138
44 21 125 13 165 -16z m2187 1 c39 -31 61 -73 68 -127 8 -72 47 -112 109 -113
47 -1 113 -39 137 -78 30 -49 32 -131 3 -170 l-21 -28 -392 0 c-430 0 -407 -4
-428 60 -30 90 25 182 122 206 108 26 132 44 141 111 11 79 31 114 88 150 41
26 133 20 173 -11z m1093 -1 c37 -27 69 -90 70 -138 0 -52 50 -97 116 -106
118 -15 181 -115 143 -225 -6 -17 -19 -35 -28 -39 -9 -5 -191 -8 -405 -8
l-389 1 -18 35 c-55 102 12 223 131 237 66 8 107 40 115 91 9 55 34 118 53
135 59 53 151 61 212 17z m-2130 -76 c6 -14 10 -37 10 -52 0 -35 34 -90 63
-101 12 -5 38 -11 57 -14 90 -13 144 -65 153 -150 5 -40 -22 -111 -44 -119
-12 -3 -770 -3 -790 1 -11 2 -39 79 -39 106 0 42 30 103 63 128 19 14 58 29
96 35 70 13 110 45 112 92 3 66 16 93 43 86 58 -15 135 -16 186 -2 77 19 79
19 90 -10z m2861 -677 c59 -39 63 -125 8 -171 -17 -14 -40 -26 -52 -27 -12 0
-1060 -1 -2328 -1 -2200 -1 -2308 0 -2337 17 -73 44 -68 157 9 189 21 9 625
11 2351 11 2213 0 2324 -1 2349 -18z m-4100 -440 c1 -12 2 -35 4 -52 2 -16 6
-86 10 -155 3 -69 8 -141 10 -160 1 -19 6 -91 10 -160 4 -69 8 -143 10 -165 2
-22 7 -87 10 -145 3 -58 7 -132 9 -165 3 -33 7 -109 11 -170 3 -60 8 -132 10
-160 3 -27 7 -95 10 -151 3 -56 7 -130 9 -165 3 -35 7 -109 11 -164 3 -55 8
-127 10 -160 2 -33 7 -105 10 -160 3 -55 8 -127 10 -160 3 -33 7 -105 11 -160
3 -55 7 -127 9 -160 2 -33 7 -109 11 -170 3 -60 8 -126 9 -145 1 -19 6 -98 10
-175 4 -77 9 -143 12 -147 5 -9 3 -9 -120 -11 -49 -1 -93 1 -98 4 -5 3 -11 23
-14 45 -12 98 -26 211 -30 234 -2 14 -6 48 -10 75 -3 28 -8 66 -10 85 -2 19
-7 60 -10 90 -4 30 -8 66 -11 80 -2 14 -6 50 -9 80 -3 30 -8 66 -10 80 -3 14
-7 48 -10 75 -3 28 -8 64 -10 80 -2 17 -7 53 -10 80 -5 44 -17 138 -30 237 -2
18 -7 58 -10 88 -3 30 -8 66 -10 80 -5 26 -10 69 -20 155 -5 48 -9 80 -19 155
-3 19 -8 61 -11 93 -4 32 -8 67 -10 79 -3 11 -7 46 -10 77 -3 31 -8 67 -10 81
-3 14 -7 48 -11 75 -3 28 -7 61 -9 75 -2 14 -7 52 -10 85 -4 33 -8 71 -10 85
-2 14 -7 51 -10 83 -4 32 -8 68 -11 80 -2 12 -9 62 -14 110 -6 49 -12 103 -15
120 -2 18 -7 55 -10 82 -3 28 -8 64 -10 80 -2 17 -7 53 -10 80 -13 98 -14 111
-20 160 -3 28 -8 64 -11 81 l-5 32 216 1 215 0 1 -22z m650 15 c2 -11 6 -135
13 -367 4 -121 9 -272 11 -335 16 -438 16 -525 0 -590 -36 -142 -26 -402 21
-544 9 -27 18 -86 19 -130 9 -304 17 -556 20 -646 2 -58 7 -206 10 -330 3
-124 8 -247 10 -273 3 -40 0 -49 -15 -55 -10 -4 -81 -6 -157 -5 -171 2 -160 1
-160 16 -1 25 -14 254 -18 297 -2 25 -6 97 -10 160 -10 178 -16 272 -30 480
-5 84 -14 224 -20 325 -3 44 -7 116 -10 160 -11 164 -15 222 -20 320 -3 55 -8
125 -10 155 -2 30 -7 102 -10 160 -3 58 -7 134 -10 170 -7 107 -15 219 -20
315 -3 50 -7 122 -10 160 -3 39 -7 107 -10 153 -11 173 -15 249 -20 320 -3 40
-3 77 0 82 6 10 424 12 426 2z m640 3 c13 -5 15 -38 15 -267 l-1 -261 -25 -10
c-91 -38 -237 -143 -325 -235 l-55 -57 -1 30 c-1 17 -2 55 -4 85 -2 55 -14
440 -19 622 l-3 96 201 1 c111 0 208 -2 217 -4z m670 -18 c3 -78 0 -429 -4
-433 -2 -3 -24 0 -48 5 -44 10 -312 8 -359 -3 l-25 -6 1 228 c1 125 2 228 3
229 0 1 98 1 216 1 214 0 215 0 216 -21z m652 -27 c-1 -54 -15 -501 -18 -585
-2 -33 -3 -91 -4 -129 l-1 -69 -83 80 c-88 84 -163 139 -264 193 l-62 32 0
264 1 263 216 -2 216 -2 -1 -45z m651 5 c-2 -54 -14 -269 -19 -325 -2 -25 -7
-92 -10 -150 -3 -58 -8 -130 -10 -160 -2 -30 -6 -100 -9 -155 -4 -55 -8 -129
-11 -165 -2 -36 -7 -110 -10 -165 -3 -55 -8 -125 -10 -155 -2 -30 -7 -102 -10
-160 -3 -58 -8 -130 -10 -160 -2 -30 -7 -107 -10 -170 -3 -63 -8 -135 -10
-160 -2 -25 -6 -92 -10 -150 -3 -58 -8 -134 -10 -170 -2 -36 -7 -108 -10 -160
-3 -52 -8 -120 -10 -150 -2 -30 -7 -107 -11 -170 -3 -63 -7 -131 -9 -150 -2
-19 -6 -91 -10 -160 -7 -135 -12 -186 -19 -198 -3 -5 -244 -8 -313 -3 -9 1
-11 31 -8 114 2 61 7 195 10 297 4 174 13 458 20 650 2 47 4 134 5 194 2 73 9
133 22 180 48 169 56 373 22 531 -20 94 -19 74 -11 345 4 118 10 289 13 380 3
91 7 215 9 275 2 61 4 156 5 212 l2 102 217 -2 216 -2 -1 -40z m640 -58 c-7
-56 -13 -105 -14 -109 0 -5 -45 -8 -100 -8 -106 0 -150 -13 -169 -49 -6 -10
-36 -119 -67 -242 l-57 -224 -3 -235 c-1 -136 2 -249 7 -267 12 -39 52 -73 85
-73 27 0 28 -5 44 -170 6 -58 13 -123 15 -145 3 -22 7 -65 10 -95 2 -30 8 -86
12 -125 4 -38 7 -74 7 -80 0 -10 -17 -156 -19 -165 -1 -3 -5 -36 -9 -75 -4
-38 -10 -83 -12 -100 -2 -16 -22 -176 -44 -355 -22 -179 -42 -341 -45 -360 -2
-19 -7 -57 -10 -85 -3 -27 -8 -61 -10 -75 -2 -14 -7 -50 -11 -80 -3 -30 -10
-57 -14 -60 -6 -4 -149 -4 -207 -1 -7 1 -10 15 -8 39 2 20 6 91 10 157 4 66 8
140 10 165 1 25 6 97 9 160 4 63 9 135 11 160 2 25 7 99 10 165 3 66 8 140 10
165 2 25 7 95 10 155 3 61 8 130 10 155 2 25 6 97 10 160 3 63 7 138 10 165 2
28 6 102 10 165 4 63 8 135 10 160 2 25 6 97 10 160 3 63 8 135 10 160 2 25 7
92 10 150 3 58 8 132 10 165 2 33 7 110 10 170 4 61 8 126 10 145 2 19 7 91
11 160 7 118 10 159 13 187 1 9 57 12 214 12 l213 0 -12 -102z m1332 -337
l142 0 26 -105 c14 -57 26 -106 26 -108 0 -2 -378 -4 -840 -4 -765 0 -840 1
-840 16 0 9 11 57 23 106 l23 90 105 5 c57 3 349 4 649 3 300 -1 609 -3 686
-3z m-3261 -251 c106 -30 162 -56 250 -114 337 -224 477 -646 340 -1025 -123
-340 -443 -569 -800 -573 -60 -1 -129 1 -151 5 -374 62 -665 346 -730 713 -89
504 277 983 781 1021 44 4 81 7 82 8 8 7 170 -18 228 -35z m3481 -191 c11 -12
10 -207 -1 -211 -9 -3 -1721 -1 -1737 2 -10 2 -9 204 1 211 13 8 1729 5 1737
-2z m-120 -493 c-4 -33 -9 -80 -11 -105 -5 -57 -15 -145 -20 -190 -2 -19 -7
-66 -10 -105 -8 -89 -16 -159 -18 -161 -1 -1 -29 4 -62 11 -33 7 -78 15 -100
18 -22 3 -101 17 -175 31 -74 13 -202 36 -285 50 -82 15 -161 28 -175 31 -150
27 -481 86 -537 95 -56 9 -73 16 -74 28 0 10 -3 35 -5 57 -11 87 -30 296 -27
298 1 2 340 3 754 3 l751 0 -6 -61z m-1161 -588 c63 -11 331 -58 355 -63 37
-7 287 -51 425 -74 262 -45 300 -54 299 -73 -1 -10 -5 -52 -8 -95 -4 -42 -8
-90 -10 -107 -3 -16 -7 -66 -11 -110 -4 -44 -10 -83 -13 -87 -6 -5 -84 6 -247
36 -16 3 -47 8 -69 11 -21 4 -48 8 -60 11 -33 6 -237 42 -276 49 -19 3 -60 10
-90 16 -89 16 -218 39 -256 45 -20 3 -46 8 -58 10 -27 5 -121 22 -166 29 -19
3 -40 11 -46 18 -6 7 -16 73 -23 147 -13 146 -19 210 -25 252 -2 15 -2 28 0
31 2 2 59 -6 127 -19 67 -12 136 -24 152 -27z m-3137 -405 c36 -32 144 -104
202 -134 l66 -33 -1 -368 c0 -267 -3 -370 -12 -375 -8 -5 -248 -8 -309 -3 -7
1 -12 46 -13 129 -2 70 -4 163 -6 207 -2 44 -6 177 -10 296 -3 120 -8 251 -9
294 l-3 76 40 -38 c23 -21 47 -44 55 -51z m1506 41 c-5 -125 -15 -408 -20
-593 -8 -291 -11 -350 -18 -357 -3 -3 -76 -7 -161 -7 -130 -1 -156 1 -160 14
-2 8 -4 177 -4 375 l1 361 74 38 c78 40 201 129 244 177 34 38 45 36 44 -8z
m1601 -288 c83 -14 160 -27 171 -29 12 -2 37 -7 55 -10 19 -3 43 -7 54 -9 27
-6 83 -15 125 -22 36 -5 125 -21 420 -75 91 -16 176 -31 190 -33 24 -4 25 -8
24 -63 -1 -32 -5 -90 -9 -129 -4 -38 -9 -81 -10 -95 -1 -14 -6 -59 -10 -100
-4 -41 -8 -81 -8 -87 0 -7 -3 -13 -6 -14 -27 -4 -1095 -3 -1101 1 -10 7 -23
109 -45 355 -3 33 -8 76 -10 95 -3 19 -7 62 -10 95 -3 33 -8 81 -11 107 -5 41
-4 46 13 43 10 -3 86 -16 168 -30z m-2182 -326 c-1 -182 -4 -333 -7 -336 -4
-5 -349 -8 -416 -4 -13 1 -15 45 -15 337 l0 336 70 -8 c113 -13 337 -5 354 12
2 2 7 2 9 -1 3 -3 5 -154 5 -336z"/>
</g>
</svg>
